<svg viewBox="0 -0.5 25 25" fill="none" xmlns="http://www.w3.org/2000/svg"><g id="SVGRepo_bgCarrier" stroke-width="0"></g><g id="SVGRepo_tracerCarrier" stroke-linecap="round" stroke-linejoin="round"></g><g id="SVGRepo_iconCarrier"> <path fill-rule="evenodd" clip-rule="evenodd" d="M5.5 14.2606C5.51486 16.2065 7.10302 17.7728 9.049 17.7606H9.53L10.952 19.2606C11.0963 19.4094 11.2947 19.4934 11.502 19.4934C11.7093 19.4934 11.9077 19.4094 12.052 19.2606L13.474 17.7606H13.955C15.8994 17.7706 17.4851 16.205 17.5 14.2606V10.0006C17.4851 8.05461 15.897 6.48838 13.951 6.50057H9.051C7.10424 6.48727 5.51486 8.05382 5.5 10.0006V14.2606Z" stroke="#3269ff" stroke-width="1.5" stroke-linecap="round" stroke-linejoin="round"></path> <path d="M7.25 6.5006C7.25 6.91481 7.58579 7.2506 8 7.2506C8.41421 7.2506 8.75 6.91481 8.75 6.5006H7.25ZM16.449 4.0006V4.75073L16.4629 4.75047L16.449 4.0006ZM18.9332 4.97613L18.4128 5.51618L18.4128 5.51618L18.9332 4.97613ZM20 7.4226H20.7501L20.7499 7.40875L20 7.4226ZM17.5 14.2506C17.0858 14.2506 16.75 14.5864 16.75 15.0006C16.75 15.4148 17.0858 15.7506 17.5 15.7506V14.2506ZM8.5 10.2506C8.08579 10.2506 7.75 10.5864 7.75 11.0006C7.75 11.4148 8.08579 11.7506 8.5 11.7506V10.2506ZM14.265 11.7506C14.6792 11.7506 15.015 11.4148 15.015 11.0006C15.015 10.5864 14.6792 10.2506 14.265 10.2506V11.7506ZM9.221 12.3586C8.80679 12.3586 8.471 12.6944 8.471 13.1086C8.471 13.5228 8.80679 13.8586 9.221 13.8586V12.3586ZM13.544 13.8586C13.9582 13.8586 14.294 13.5228 14.294 13.1086C14.294 12.6944 13.9582 12.3586 13.544 12.3586V13.8586ZM8.75 6.5006C8.75 5.81137 9.01573 5.43293 9.42787 5.18347C9.8982 4.89877 10.6233 4.7506 11.549 4.7506V3.2506C10.5147 3.2506 9.4653 3.40742 8.65113 3.90023C7.77877 4.42827 7.25 5.29983 7.25 6.5006H8.75ZM11.549 4.7506H16.449V3.2506H11.549V4.7506ZM16.4629 4.75047C17.1887 4.73702 17.8901 5.01246 18.4128 5.51618L19.4537 4.43609C18.6445 3.6563 17.5587 3.22991 16.4351 3.25073L16.4629 4.75047ZM18.4128 5.51618C18.9355 6.01991 19.2367 6.71065 19.2501 7.43645L20.7499 7.40875C20.7291 6.28518 20.2629 5.21587 19.4537 4.43609L18.4128 5.51618ZM19.25 7.4226V11.5786H20.75V7.4226H19.25ZM19.25 11.5786C19.25 12.4864 19.1243 13.1709 18.8585 13.6099C18.6354 13.9783 18.2701 14.2506 17.5 14.2506V15.7506C18.7299 15.7506 19.6146 15.2569 20.1415 14.3868C20.6257 13.5873 20.75 12.5608 20.75 11.5786H19.25ZM8.5 11.7506H14.265V10.2506H8.5V11.7506ZM9.221 13.8586H13.544V12.3586H9.221V13.8586Z" fill="#3269ff"></path> </g></svg>