<svg fill="#000000" viewBox="0 0 24 24" id="loading-20" data-name="Flat Color" xmlns="http://www.w3.org/2000/svg" class="icon flat-color"><g id="SVGRepo_bgCarrier" stroke-width="0"></g><g id="SVGRepo_tracerCarrier" stroke-linecap="round" stroke-linejoin="round"></g><g id="SVGRepo_iconCarrier"><path id="primary" d="M12,22a1,1,0,0,1-1-1V18a1,1,0,0,1,2,0v3A1,1,0,0,1,12,22Zm6.36-2.64a1,1,0,0,1-.7-.29L15.54,17a1,1,0,0,1,0-1.41,1,1,0,0,1,1.41,0l2.12,2.12a1,1,0,0,1,0,1.41A1,1,0,0,1,18.36,19.36Zm-12.72,0a1,1,0,0,1-.71-.29,1,1,0,0,1,0-1.41l2.12-2.12a1,1,0,0,1,1.41,0,1,1,0,0,1,0,1.41L6.34,19.07A1,1,0,0,1,5.64,19.36ZM20,13H18a1,1,0,0,1,0-2h2a1,1,0,0,1,0,2ZM6,13H3a1,1,0,0,1,0-2H6a1,1,0,0,1,0,2ZM7.76,8.76a1,1,0,0,1-.71-.3L4.93,6.34A1,1,0,0,1,6.34,4.93L8.46,7.05a1,1,0,0,1,0,1.41A1,1,0,0,1,7.76,8.76Zm8.48,0a1,1,0,0,1-.7-.3,1,1,0,0,1,0-1.41l.7-.71a1,1,0,1,1,1.42,1.42l-.71.7A1,1,0,0,1,16.24,8.76ZM12,7a1,1,0,0,1-1-1V3a1,1,0,0,1,2,0V6A1,1,0,0,1,12,7Z" style="fill: #bdbdbd;"></path></g></svg>